<mxfile host="app.diagrams.net" modified="2023-05-28T18:47:14.450Z" agent="Mozilla/5.0 (Windows NT 10.0; Win64; x64) AppleWebKit/537.36 (KHTML, like Gecko) Chrome/112.0.0.0 Safari/537.36 OPR/98.0.0.0" etag="Ul-NotWYQu76hbSNyC9h" version="21.3.4" type="device">
  <diagram name="Σελίδα-1" id="WVEBd1sjFHavCeA0LY7U">
    <mxGraphModel dx="1336" dy="718" grid="1" gridSize="10" guides="1" tooltips="1" connect="1" arrows="1" fold="1" page="1" pageScale="1" pageWidth="1169" pageHeight="1654" math="0" shadow="0">
      <root>
        <mxCell id="0" />
        <mxCell id="1" parent="0" />
        <mxCell id="arP7l1wMcAtvW6ZHbNae-1" value="Χρήστης" style="shape=umlActor;verticalLabelPosition=bottom;verticalAlign=top;html=1;outlineConnect=0;fontColor=#000000;" parent="1" vertex="1">
          <mxGeometry x="90" y="510" width="30" height="60" as="geometry" />
        </mxCell>
        <mxCell id="SWPQcaOPygvo77F1xrFM-1" value="&lt;font&gt;Έχει επαρκές χρηματικό υπόλοιπο ο χρήστης ;&lt;/font&gt;" style="ellipse;shape=umlControl;whiteSpace=wrap;html=1;strokeColor=#000000;fontColor=#000000;" parent="1" vertex="1">
          <mxGeometry x="480" y="170" width="90" height="100" as="geometry" />
        </mxCell>
        <mxCell id="SWPQcaOPygvo77F1xrFM-2" value="" style="edgeStyle=none;rounded=0;orthogonalLoop=1;jettySize=auto;html=1;strokeColor=#000000;fontColor=#000000;exitX=0.327;exitY=0.97;exitDx=0;exitDy=0;exitPerimeter=0;entryX=0.595;entryY=0.115;entryDx=0;entryDy=0;entryPerimeter=0;" parent="1" source="SWPQcaOPygvo77F1xrFM-1" target="SWPQcaOPygvo77F1xrFM-4" edge="1">
          <mxGeometry relative="1" as="geometry">
            <mxPoint x="535" y="520" as="sourcePoint" />
            <mxPoint x="430" y="440" as="targetPoint" />
          </mxGeometry>
        </mxCell>
        <mxCell id="SWPQcaOPygvo77F1xrFM-3" value="&lt;font style=&quot;font-size: 14px;&quot;&gt;ναι&lt;br&gt;&lt;br&gt;&lt;/font&gt;" style="edgeLabel;html=1;align=center;verticalAlign=middle;resizable=0;points=[];fontColor=#000000;fontSize=14;" parent="1" vertex="1" connectable="0">
          <mxGeometry x="525" y="810" as="geometry">
            <mxPoint x="-5" y="-514" as="offset" />
          </mxGeometry>
        </mxCell>
        <mxCell id="SWPQcaOPygvo77F1xrFM-4" value="&lt;font&gt;Εμφάνισε&lt;/font&gt;" style="ellipse;shape=umlControl;whiteSpace=wrap;html=1;strokeColor=#000000;fontColor=#000000;" parent="1" vertex="1">
          <mxGeometry x="450" y="330" width="70" height="80" as="geometry" />
        </mxCell>
        <mxCell id="SWPQcaOPygvo77F1xrFM-5" value="" style="rounded=0;orthogonalLoop=1;jettySize=auto;html=1;exitX=0.452;exitY=1.004;exitDx=0;exitDy=0;exitPerimeter=0;fillColor=#ffe6cc;strokeColor=#000000;fontColor=#000000;entryX=0.756;entryY=0.032;entryDx=0;entryDy=0;entryPerimeter=0;" parent="1" source="SWPQcaOPygvo77F1xrFM-4" target="SWPQcaOPygvo77F1xrFM-7" edge="1">
          <mxGeometry relative="1" as="geometry">
            <mxPoint x="215" y="540" as="sourcePoint" />
            <mxPoint x="380" y="470" as="targetPoint" />
          </mxGeometry>
        </mxCell>
        <mxCell id="SWPQcaOPygvo77F1xrFM-7" value="&lt;font&gt;Σελίδα &quot;Εκπτωτικό κουπόνι&quot;&lt;/font&gt;" style="shape=umlBoundary;whiteSpace=wrap;html=1;strokeColor=#000000;fontColor=#000000;" parent="1" vertex="1">
          <mxGeometry x="385" y="490" width="100" height="80" as="geometry" />
        </mxCell>
        <mxCell id="SWPQcaOPygvo77F1xrFM-8" value="" style="edgeStyle=none;curved=1;rounded=0;orthogonalLoop=1;jettySize=auto;html=1;fontSize=12;startSize=8;endSize=8;strokeColor=#000000;exitX=1;exitY=0.3333333333333333;exitDx=0;exitDy=0;exitPerimeter=0;entryX=-0.017;entryY=0.463;entryDx=0;entryDy=0;entryPerimeter=0;" parent="1" source="arP7l1wMcAtvW6ZHbNae-1" target="SWPQcaOPygvo77F1xrFM-7" edge="1">
          <mxGeometry relative="1" as="geometry">
            <Array as="points" />
            <mxPoint x="89" y="871" as="targetPoint" />
            <mxPoint x="-145" y="580" as="sourcePoint" />
          </mxGeometry>
        </mxCell>
        <mxCell id="SWPQcaOPygvo77F1xrFM-9" value="&lt;font style=&quot;font-size: 12px;&quot;&gt;Εισάγει επιλογή&lt;br style=&quot;font-size: 12px;&quot;&gt;(διαθέτει κουπόνι ή όχι)&lt;br style=&quot;font-size: 12px;&quot;&gt;&lt;/font&gt;" style="edgeLabel;html=1;align=center;verticalAlign=middle;resizable=0;points=[];fontSize=12;rotation=0;fontColor=#000000;" parent="1" vertex="1" connectable="0">
          <mxGeometry x="440.0002870063051" y="930.004023431183" as="geometry">
            <mxPoint x="-176" y="-424" as="offset" />
          </mxGeometry>
        </mxCell>
        <mxCell id="SWPQcaOPygvo77F1xrFM-10" value="" style="edgeStyle=none;rounded=0;orthogonalLoop=1;jettySize=auto;html=1;strokeColor=#000000;fontColor=#000000;exitX=1.022;exitY=0.518;exitDx=0;exitDy=0;exitPerimeter=0;entryX=0.021;entryY=0.535;entryDx=0;entryDy=0;entryPerimeter=0;" parent="1" source="SWPQcaOPygvo77F1xrFM-7" target="SWPQcaOPygvo77F1xrFM-11" edge="1">
          <mxGeometry relative="1" as="geometry">
            <mxPoint x="627" y="550" as="sourcePoint" />
            <mxPoint x="610" y="551" as="targetPoint" />
          </mxGeometry>
        </mxCell>
        <mxCell id="SWPQcaOPygvo77F1xrFM-11" value="&lt;font style=&quot;font-size: 14px;&quot;&gt;Απάντησε θετικά ο χρήστης ;&lt;/font&gt;" style="ellipse;shape=umlControl;whiteSpace=wrap;html=1;strokeColor=#000000;fontColor=#000000;fontSize=14;" parent="1" vertex="1">
          <mxGeometry x="830" y="460" width="80" height="90" as="geometry" />
        </mxCell>
        <mxCell id="SWPQcaOPygvo77F1xrFM-15" value="" style="edgeStyle=none;rounded=0;orthogonalLoop=1;jettySize=auto;html=1;strokeColor=#000000;fontColor=#000000;exitX=0.007;exitY=0.819;exitDx=0;exitDy=0;exitPerimeter=0;entryX=0.929;entryY=0.375;entryDx=0;entryDy=0;entryPerimeter=0;" parent="1" source="SWPQcaOPygvo77F1xrFM-11" target="SWPQcaOPygvo77F1xrFM-17" edge="1">
          <mxGeometry relative="1" as="geometry">
            <mxPoint x="637" y="620" as="sourcePoint" />
            <mxPoint x="600" y="690" as="targetPoint" />
          </mxGeometry>
        </mxCell>
        <mxCell id="SWPQcaOPygvo77F1xrFM-16" value="&lt;font style=&quot;font-size: 14px;&quot;&gt;ναι&lt;br&gt;&lt;br&gt;&lt;/font&gt;" style="edgeLabel;html=1;align=center;verticalAlign=middle;resizable=0;points=[];fontColor=#000000;fontSize=14;" parent="1" vertex="1" connectable="0">
          <mxGeometry x="820" y="1080" as="geometry">
            <mxPoint x="-5" y="-514" as="offset" />
          </mxGeometry>
        </mxCell>
        <mxCell id="SWPQcaOPygvo77F1xrFM-17" value="&lt;font&gt;Εμφάνισε&lt;/font&gt;" style="ellipse;shape=umlControl;whiteSpace=wrap;html=1;strokeColor=#000000;fontColor=#000000;" parent="1" vertex="1">
          <mxGeometry x="585" y="660" width="70" height="80" as="geometry" />
        </mxCell>
        <mxCell id="SWPQcaOPygvo77F1xrFM-18" value="&lt;font&gt;Σελίδα &quot;Εισαγωγή κωδικού κουπονιού&quot;&lt;/font&gt;" style="shape=umlBoundary;whiteSpace=wrap;html=1;strokeColor=#000000;fontColor=#000000;" parent="1" vertex="1">
          <mxGeometry x="385" y="650" width="100" height="80" as="geometry" />
        </mxCell>
        <mxCell id="SWPQcaOPygvo77F1xrFM-19" value="" style="edgeStyle=none;rounded=0;orthogonalLoop=1;jettySize=auto;html=1;strokeColor=#000000;fontColor=#000000;exitX=0;exitY=0.532;exitDx=0;exitDy=0;exitPerimeter=0;entryX=1.017;entryY=0.504;entryDx=0;entryDy=0;entryPerimeter=0;" parent="1" source="SWPQcaOPygvo77F1xrFM-17" target="SWPQcaOPygvo77F1xrFM-18" edge="1">
          <mxGeometry relative="1" as="geometry">
            <mxPoint x="502" y="571" as="sourcePoint" />
            <mxPoint x="632" y="563" as="targetPoint" />
          </mxGeometry>
        </mxCell>
        <mxCell id="SWPQcaOPygvo77F1xrFM-20" value="" style="edgeStyle=none;curved=1;rounded=0;orthogonalLoop=1;jettySize=auto;html=1;fontSize=12;startSize=8;endSize=8;strokeColor=#000000;exitX=1;exitY=0.3333333333333333;exitDx=0;exitDy=0;exitPerimeter=0;entryX=0.011;entryY=0.546;entryDx=0;entryDy=0;entryPerimeter=0;" parent="1" source="arP7l1wMcAtvW6ZHbNae-1" target="SWPQcaOPygvo77F1xrFM-18" edge="1">
          <mxGeometry relative="1" as="geometry">
            <Array as="points" />
            <mxPoint x="398" y="567" as="targetPoint" />
            <mxPoint x="130" y="540" as="sourcePoint" />
          </mxGeometry>
        </mxCell>
        <mxCell id="SWPQcaOPygvo77F1xrFM-21" value="&lt;font style=&quot;font-size: 12px;&quot;&gt;Εισάγει εκπτωτικό κωδικό&lt;br style=&quot;font-size: 12px;&quot;&gt;&lt;/font&gt;" style="edgeLabel;html=1;align=center;verticalAlign=middle;resizable=0;points=[];fontSize=12;rotation=30;fontColor=#000000;" parent="1" vertex="1" connectable="0">
          <mxGeometry x="210.0002870063051" y="1060.004023431183" as="geometry">
            <mxPoint x="-176" y="-424" as="offset" />
          </mxGeometry>
        </mxCell>
        <mxCell id="SWPQcaOPygvo77F1xrFM-22" value="" style="edgeStyle=none;rounded=0;orthogonalLoop=1;jettySize=auto;html=1;strokeColor=#000000;fontColor=#000000;exitX=0.587;exitY=1.008;exitDx=0;exitDy=0;exitPerimeter=0;entryX=0.438;entryY=0.078;entryDx=0;entryDy=0;entryPerimeter=0;" parent="1" source="SWPQcaOPygvo77F1xrFM-18" target="SWPQcaOPygvo77F1xrFM-23" edge="1">
          <mxGeometry relative="1" as="geometry">
            <mxPoint x="559" y="700" as="sourcePoint" />
            <mxPoint x="460" y="850" as="targetPoint" />
          </mxGeometry>
        </mxCell>
        <mxCell id="SWPQcaOPygvo77F1xrFM-23" value="&lt;font&gt;Είναι ο εκπτωτικός κωδικός έγκυρος;&lt;/font&gt;" style="ellipse;shape=umlControl;whiteSpace=wrap;html=1;strokeColor=#000000;fontColor=#000000;" parent="1" vertex="1">
          <mxGeometry x="460" y="787" width="70" height="80" as="geometry" />
        </mxCell>
        <mxCell id="SWPQcaOPygvo77F1xrFM-24" value="" style="edgeStyle=none;rounded=0;orthogonalLoop=1;jettySize=auto;html=1;strokeColor=#000000;fontColor=#000000;exitX=1.007;exitY=0.489;exitDx=0;exitDy=0;exitPerimeter=0;entryX=-0.015;entryY=0.521;entryDx=0;entryDy=0;entryPerimeter=0;" parent="1" source="SWPQcaOPygvo77F1xrFM-23" target="SWPQcaOPygvo77F1xrFM-27" edge="1">
          <mxGeometry relative="1" as="geometry">
            <mxPoint x="550" y="830" as="sourcePoint" />
            <mxPoint x="620" y="826" as="targetPoint" />
          </mxGeometry>
        </mxCell>
        <mxCell id="SWPQcaOPygvo77F1xrFM-25" value="&lt;font style=&quot;font-size: 14px;&quot;&gt;ναι&lt;br&gt;&lt;br&gt;&lt;/font&gt;" style="edgeLabel;html=1;align=center;verticalAlign=middle;resizable=0;points=[];fontColor=#000000;fontSize=14;" parent="1" vertex="1" connectable="0">
          <mxGeometry x="550" y="1360" as="geometry">
            <mxPoint x="-5" y="-514" as="offset" />
          </mxGeometry>
        </mxCell>
        <mxCell id="SWPQcaOPygvo77F1xrFM-26" value="User" style="ellipse;shape=umlEntity;whiteSpace=wrap;html=1;fontColor=#000000;strokeColor=#000000;" parent="1" vertex="1">
          <mxGeometry x="790" y="600" width="80" height="82.1" as="geometry" />
        </mxCell>
        <mxCell id="SWPQcaOPygvo77F1xrFM-27" value="Υπολογισμός νέου κόστους παραγγελίας&lt;br&gt;" style="ellipse;shape=umlControl;whiteSpace=wrap;html=1;strokeColor=#000000;fontColor=#000000;" parent="1" vertex="1">
          <mxGeometry x="650" y="775" width="90" height="103" as="geometry" />
        </mxCell>
        <mxCell id="SWPQcaOPygvo77F1xrFM-28" value="" style="edgeStyle=none;rounded=0;orthogonalLoop=1;jettySize=auto;html=1;strokeColor=#000000;fontColor=#000000;exitX=0.801;exitY=0.229;exitDx=0;exitDy=0;exitPerimeter=0;entryX=0.299;entryY=0.966;entryDx=0;entryDy=0;entryPerimeter=0;" parent="1" source="SWPQcaOPygvo77F1xrFM-27" target="SWPQcaOPygvo77F1xrFM-26" edge="1">
          <mxGeometry relative="1" as="geometry">
            <mxPoint x="495" y="836" as="sourcePoint" />
            <mxPoint x="659" y="839" as="targetPoint" />
          </mxGeometry>
        </mxCell>
        <mxCell id="SWPQcaOPygvo77F1xrFM-29" value="" style="edgeStyle=none;rounded=0;orthogonalLoop=1;jettySize=auto;html=1;strokeColor=#000000;fontColor=#000000;exitX=0.99;exitY=0.547;exitDx=0;exitDy=0;exitPerimeter=0;entryX=-0.006;entryY=0.521;entryDx=0;entryDy=0;entryPerimeter=0;" parent="1" source="SWPQcaOPygvo77F1xrFM-27" target="SWPQcaOPygvo77F1xrFM-30" edge="1">
          <mxGeometry relative="1" as="geometry">
            <mxPoint x="800" y="824" as="sourcePoint" />
            <mxPoint x="890" y="831" as="targetPoint" />
          </mxGeometry>
        </mxCell>
        <mxCell id="SWPQcaOPygvo77F1xrFM-30" value="Υπολογισμός νέου χρηματικού υπολοίπου χρήστη" style="ellipse;shape=umlControl;whiteSpace=wrap;html=1;strokeColor=#000000;fontColor=#000000;" parent="1" vertex="1">
          <mxGeometry x="870" y="775" width="90" height="103" as="geometry" />
        </mxCell>
        <mxCell id="SWPQcaOPygvo77F1xrFM-31" value="" style="edgeStyle=none;rounded=0;orthogonalLoop=1;jettySize=auto;html=1;strokeColor=#000000;fontColor=#000000;exitX=0.259;exitY=0.128;exitDx=0;exitDy=0;exitPerimeter=0;" parent="1" source="SWPQcaOPygvo77F1xrFM-30" target="SWPQcaOPygvo77F1xrFM-26" edge="1">
          <mxGeometry relative="1" as="geometry">
            <mxPoint x="732" y="809" as="sourcePoint" />
            <mxPoint x="782" y="737" as="targetPoint" />
          </mxGeometry>
        </mxCell>
        <mxCell id="SWPQcaOPygvo77F1xrFM-32" value="" style="edgeStyle=none;rounded=0;orthogonalLoop=1;jettySize=auto;html=1;strokeColor=#000000;fontColor=#000000;exitX=0.41;exitY=0.103;exitDx=0;exitDy=0;exitPerimeter=0;entryX=1;entryY=1;entryDx=0;entryDy=0;" parent="1" source="SWPQcaOPygvo77F1xrFM-1" target="SWPQcaOPygvo77F1xrFM-35" edge="1">
          <mxGeometry relative="1" as="geometry">
            <mxPoint x="519" y="277" as="sourcePoint" />
            <mxPoint x="480" y="130" as="targetPoint" />
          </mxGeometry>
        </mxCell>
        <mxCell id="SWPQcaOPygvo77F1xrFM-35" value="User" style="ellipse;shape=umlEntity;whiteSpace=wrap;html=1;strokeColor=#000000;fontColor=#000000;fontSize=14;" parent="1" vertex="1">
          <mxGeometry x="385" y="9.999999999999972" width="85" height="80" as="geometry" />
        </mxCell>
        <mxCell id="SWPQcaOPygvo77F1xrFM-39" value="Λίστα εκπτωτικών κωδικών" style="ellipse;shape=umlEntity;whiteSpace=wrap;html=1;fontColor=#000000;strokeColor=#000000;" parent="1" vertex="1">
          <mxGeometry x="300" y="784.9" width="80" height="82.1" as="geometry" />
        </mxCell>
        <mxCell id="SWPQcaOPygvo77F1xrFM-40" value="" style="edgeStyle=none;rounded=0;orthogonalLoop=1;jettySize=auto;html=1;strokeColor=#000000;fontColor=#000000;exitX=-0.001;exitY=0.554;exitDx=0;exitDy=0;exitPerimeter=0;entryX=0.97;entryY=0.557;entryDx=0;entryDy=0;entryPerimeter=0;" parent="1" source="SWPQcaOPygvo77F1xrFM-23" target="SWPQcaOPygvo77F1xrFM-39" edge="1">
          <mxGeometry relative="1" as="geometry">
            <mxPoint x="412" y="890" as="sourcePoint" />
            <mxPoint x="390" y="827" as="targetPoint" />
          </mxGeometry>
        </mxCell>
        <mxCell id="SWPQcaOPygvo77F1xrFM-41" value="&lt;font&gt;Εμφάνισε&lt;/font&gt;" style="ellipse;shape=umlControl;whiteSpace=wrap;html=1;strokeColor=#000000;fontColor=#000000;" parent="1" vertex="1">
          <mxGeometry x="670" y="910" width="70" height="80" as="geometry" />
        </mxCell>
        <mxCell id="SWPQcaOPygvo77F1xrFM-42" value="" style="edgeStyle=none;rounded=0;orthogonalLoop=1;jettySize=auto;html=1;strokeColor=#000000;fontColor=#000000;exitX=0.129;exitY=0.902;exitDx=0;exitDy=0;exitPerimeter=0;entryX=0.937;entryY=0.364;entryDx=0;entryDy=0;entryPerimeter=0;" parent="1" source="SWPQcaOPygvo77F1xrFM-30" target="SWPQcaOPygvo77F1xrFM-41" edge="1">
          <mxGeometry relative="1" as="geometry">
            <mxPoint x="847" y="930" as="sourcePoint" />
            <mxPoint x="800" y="1018" as="targetPoint" />
          </mxGeometry>
        </mxCell>
        <mxCell id="SWPQcaOPygvo77F1xrFM-43" value="" style="edgeStyle=none;rounded=0;orthogonalLoop=1;jettySize=auto;html=1;strokeColor=#000000;fontColor=#000000;exitX=-0.009;exitY=0.619;exitDx=0;exitDy=0;exitPerimeter=0;entryX=1;entryY=0.5;entryDx=0;entryDy=0;entryPerimeter=0;" parent="1" source="SWPQcaOPygvo77F1xrFM-41" target="SWPQcaOPygvo77F1xrFM-44" edge="1">
          <mxGeometry relative="1" as="geometry">
            <mxPoint x="430" y="1052" as="sourcePoint" />
            <mxPoint x="350" y="1020" as="targetPoint" />
          </mxGeometry>
        </mxCell>
        <mxCell id="SWPQcaOPygvo77F1xrFM-44" value="&lt;font&gt;Σελίδα &quot;Νέο Υπόλοιπο&quot;&lt;/font&gt;" style="shape=umlBoundary;whiteSpace=wrap;html=1;strokeColor=#000000;fontColor=#000000;" parent="1" vertex="1">
          <mxGeometry x="300" y="920" width="100" height="80" as="geometry" />
        </mxCell>
        <mxCell id="SWPQcaOPygvo77F1xrFM-45" value="" style="endArrow=classic;html=1;rounded=0;exitX=-0.011;exitY=0.509;exitDx=0;exitDy=0;exitPerimeter=0;strokeColor=#FF0000;entryX=1.014;entryY=0.543;entryDx=0;entryDy=0;entryPerimeter=0;" parent="1" source="SWPQcaOPygvo77F1xrFM-1" target="SWPQcaOPygvo77F1xrFM-48" edge="1">
          <mxGeometry width="50" height="50" relative="1" as="geometry">
            <mxPoint x="650" y="231" as="sourcePoint" />
            <mxPoint x="730" y="225" as="targetPoint" />
          </mxGeometry>
        </mxCell>
        <mxCell id="SWPQcaOPygvo77F1xrFM-47" value="&lt;font style=&quot;font-size: 14px;&quot;&gt;όχι&lt;br&gt;&lt;/font&gt;" style="edgeLabel;html=1;align=center;verticalAlign=middle;resizable=0;points=[];fontColor=#000000;fontSize=14;" parent="1" vertex="1" connectable="0">
          <mxGeometry x="470" y="750" as="geometry">
            <mxPoint x="-5" y="-514" as="offset" />
          </mxGeometry>
        </mxCell>
        <mxCell id="SWPQcaOPygvo77F1xrFM-48" value="&lt;font&gt;Εμφάνισε&lt;/font&gt;" style="ellipse;shape=umlControl;whiteSpace=wrap;html=1;strokeColor=#000000;fontColor=#FFFFFF;fillColor=#FF0000;" parent="1" vertex="1">
          <mxGeometry x="330" y="180" width="70" height="80" as="geometry" />
        </mxCell>
        <mxCell id="SWPQcaOPygvo77F1xrFM-49" value="&lt;font&gt;Σελίδα &quot;Ανανέωση υπολοίπου&quot;&lt;/font&gt;" style="shape=umlBoundary;whiteSpace=wrap;html=1;strokeColor=#000000;fontColor=#FFFFFF;fillColor=#FF0000;" parent="1" vertex="1">
          <mxGeometry x="210" y="270" width="100" height="80" as="geometry" />
        </mxCell>
        <mxCell id="SWPQcaOPygvo77F1xrFM-50" value="" style="edgeStyle=none;rounded=0;orthogonalLoop=1;jettySize=auto;html=1;strokeColor=#FF0000;fontColor=#000000;exitX=0.13;exitY=0.919;exitDx=0;exitDy=0;exitPerimeter=0;entryX=0.9;entryY=0.25;entryDx=0;entryDy=0;entryPerimeter=0;" parent="1" source="SWPQcaOPygvo77F1xrFM-48" target="SWPQcaOPygvo77F1xrFM-49" edge="1">
          <mxGeometry relative="1" as="geometry">
            <mxPoint x="395" y="310" as="sourcePoint" />
            <mxPoint x="378" y="382" as="targetPoint" />
          </mxGeometry>
        </mxCell>
        <mxCell id="SWPQcaOPygvo77F1xrFM-51" value="" style="edgeStyle=none;curved=1;rounded=0;orthogonalLoop=1;jettySize=auto;html=1;fontSize=12;startSize=8;endSize=8;strokeColor=#FF0000;exitX=1;exitY=0.3333333333333333;exitDx=0;exitDy=0;exitPerimeter=0;entryX=0.271;entryY=0.856;entryDx=0;entryDy=0;entryPerimeter=0;" parent="1" source="arP7l1wMcAtvW6ZHbNae-1" target="SWPQcaOPygvo77F1xrFM-49" edge="1">
          <mxGeometry relative="1" as="geometry">
            <Array as="points" />
            <mxPoint x="393" y="537" as="targetPoint" />
            <mxPoint x="130" y="540" as="sourcePoint" />
          </mxGeometry>
        </mxCell>
        <mxCell id="SWPQcaOPygvo77F1xrFM-53" value="&lt;font style=&quot;font-size: 12px;&quot;&gt;Παραθέτει χρηματικό ποσό&lt;br style=&quot;font-size: 12px;&quot;&gt;&lt;/font&gt;" style="edgeLabel;html=1;align=center;verticalAlign=middle;resizable=0;points=[];fontSize=12;rotation=-45;fontColor=#000000;" parent="1" vertex="1" connectable="0">
          <mxGeometry x="570.0002870063051" y="610.0040234311831" as="geometry">
            <mxPoint x="-176" y="-424" as="offset" />
          </mxGeometry>
        </mxCell>
        <mxCell id="SWPQcaOPygvo77F1xrFM-54" value="" style="edgeStyle=none;rounded=0;orthogonalLoop=1;jettySize=auto;html=1;strokeColor=#FF0000;fontColor=#000000;exitX=0.372;exitY=-0.01;exitDx=0;exitDy=0;exitPerimeter=0;entryX=0.5;entryY=0.992;entryDx=0;entryDy=0;entryPerimeter=0;" parent="1" source="SWPQcaOPygvo77F1xrFM-49" target="SWPQcaOPygvo77F1xrFM-55" edge="1">
          <mxGeometry relative="1" as="geometry">
            <mxPoint x="243.5" y="240" as="sourcePoint" />
            <mxPoint x="220" y="180" as="targetPoint" />
          </mxGeometry>
        </mxCell>
        <mxCell id="SWPQcaOPygvo77F1xrFM-55" value="&lt;font&gt;Ανανέωση χρηματικού υπολοίπου χρήστη&lt;/font&gt;" style="ellipse;shape=umlControl;whiteSpace=wrap;html=1;strokeColor=#000000;fontColor=#FFFFFF;fillColor=#FF0000;" parent="1" vertex="1">
          <mxGeometry x="175" y="60" width="90" height="100" as="geometry" />
        </mxCell>
        <mxCell id="SWPQcaOPygvo77F1xrFM-57" value="" style="edgeStyle=none;rounded=0;orthogonalLoop=1;jettySize=auto;html=1;strokeColor=#FF0000;fontColor=#000000;exitX=0.969;exitY=0.381;exitDx=0;exitDy=0;exitPerimeter=0;entryX=0;entryY=0.5;entryDx=0;entryDy=0;" parent="1" source="SWPQcaOPygvo77F1xrFM-55" target="SWPQcaOPygvo77F1xrFM-35" edge="1">
          <mxGeometry relative="1" as="geometry">
            <mxPoint x="349" y="264" as="sourcePoint" />
            <mxPoint x="310" y="300" as="targetPoint" />
          </mxGeometry>
        </mxCell>
        <mxCell id="SWPQcaOPygvo77F1xrFM-58" value="" style="edgeStyle=none;rounded=0;orthogonalLoop=1;jettySize=auto;html=1;strokeColor=#FF0000;fontColor=#000000;exitX=0.988;exitY=0.703;exitDx=0;exitDy=0;exitPerimeter=0;entryX=0.105;entryY=0.281;entryDx=0;entryDy=0;entryPerimeter=0;" parent="1" source="SWPQcaOPygvo77F1xrFM-55" target="SWPQcaOPygvo77F1xrFM-1" edge="1">
          <mxGeometry relative="1" as="geometry">
            <mxPoint x="272" y="108" as="sourcePoint" />
            <mxPoint x="410" y="90" as="targetPoint" />
          </mxGeometry>
        </mxCell>
        <mxCell id="SWPQcaOPygvo77F1xrFM-59" value="" style="edgeStyle=none;rounded=0;orthogonalLoop=1;jettySize=auto;html=1;strokeColor=#FF0000;fontColor=#000000;exitX=0.674;exitY=1.004;exitDx=0;exitDy=0;exitPerimeter=0;entryX=0.463;entryY=0.073;entryDx=0;entryDy=0;entryPerimeter=0;" parent="1" source="SWPQcaOPygvo77F1xrFM-11" target="SWPQcaOPygvo77F1xrFM-30" edge="1">
          <mxGeometry relative="1" as="geometry">
            <mxPoint x="665" y="581" as="sourcePoint" />
            <mxPoint x="850" y="520" as="targetPoint" />
          </mxGeometry>
        </mxCell>
        <mxCell id="SWPQcaOPygvo77F1xrFM-60" value="&lt;font style=&quot;font-size: 14px;&quot;&gt;όχι&lt;br&gt;&lt;/font&gt;" style="edgeLabel;html=1;align=center;verticalAlign=middle;resizable=0;points=[];fontColor=#000000;fontSize=14;" parent="1" vertex="1" connectable="0">
          <mxGeometry x="900" y="1070" as="geometry">
            <mxPoint x="-5" y="-514" as="offset" />
          </mxGeometry>
        </mxCell>
        <mxCell id="SWPQcaOPygvo77F1xrFM-61" value="" style="edgeStyle=none;rounded=0;orthogonalLoop=1;jettySize=auto;html=1;strokeColor=#FF0000;fontColor=#000000;exitX=0.754;exitY=0.195;exitDx=0;exitDy=0;exitPerimeter=0;entryX=0.333;entryY=1.037;entryDx=0;entryDy=0;entryPerimeter=0;" parent="1" source="SWPQcaOPygvo77F1xrFM-23" target="SWPQcaOPygvo77F1xrFM-63" edge="1">
          <mxGeometry relative="1" as="geometry">
            <mxPoint x="556" y="740" as="sourcePoint" />
            <mxPoint x="600" y="400" as="targetPoint" />
          </mxGeometry>
        </mxCell>
        <mxCell id="SWPQcaOPygvo77F1xrFM-62" value="&lt;font style=&quot;font-size: 14px;&quot;&gt;όχι&lt;br&gt;&lt;/font&gt;" style="edgeLabel;html=1;align=center;verticalAlign=middle;resizable=0;points=[];fontColor=#000000;fontSize=14;" parent="1" vertex="1" connectable="0">
          <mxGeometry x="540" y="1290" as="geometry">
            <mxPoint x="-5" y="-514" as="offset" />
          </mxGeometry>
        </mxCell>
        <mxCell id="SWPQcaOPygvo77F1xrFM-63" value="&lt;font&gt;Εμφάνισε μήνυμα για την μη εγκυρότητα του κωδικού&lt;/font&gt;" style="ellipse;shape=umlControl;whiteSpace=wrap;html=1;strokeColor=#000000;fontColor=#FFFFFF;fillColor=#FF0000;" parent="1" vertex="1">
          <mxGeometry x="600" y="330" width="90" height="100" as="geometry" />
        </mxCell>
        <mxCell id="SWPQcaOPygvo77F1xrFM-64" value="" style="edgeStyle=none;rounded=0;orthogonalLoop=1;jettySize=auto;html=1;strokeColor=#FF0000;fontColor=#000000;exitX=-0.031;exitY=0.526;exitDx=0;exitDy=0;exitPerimeter=0;entryX=0.976;entryY=0.574;entryDx=0;entryDy=0;entryPerimeter=0;" parent="1" source="SWPQcaOPygvo77F1xrFM-63" target="SWPQcaOPygvo77F1xrFM-4" edge="1">
          <mxGeometry relative="1" as="geometry">
            <mxPoint x="523" y="813" as="sourcePoint" />
            <mxPoint x="640" y="444" as="targetPoint" />
          </mxGeometry>
        </mxCell>
        <mxCell id="c0AfJsu5kKPvgwh6cU9c-1" value="&lt;font style=&quot;font-size: 10.5px;&quot;&gt;(Προσπέλαση καλαθιού χρήστη)&lt;br style=&quot;font-size: 10.5px;&quot;&gt;&lt;/font&gt;" style="edgeLabel;html=1;align=center;verticalAlign=middle;resizable=0;points=[];fontSize=10.5;rotation=-50;fontColor=#000000;" vertex="1" connectable="0" parent="1">
          <mxGeometry x="1190.0002870063051" y="867.004023431183" as="geometry">
            <mxPoint x="-176" y="-424" as="offset" />
          </mxGeometry>
        </mxCell>
        <mxCell id="c0AfJsu5kKPvgwh6cU9c-3" value="&lt;font style=&quot;font-size: 9px;&quot;&gt;(Προσπέλαση Balance)&lt;br style=&quot;font-size: 9px;&quot;&gt;&lt;/font&gt;" style="edgeLabel;html=1;align=center;verticalAlign=middle;resizable=0;points=[];fontSize=9;rotation=64;fontColor=#000000;" vertex="1" connectable="0" parent="1">
          <mxGeometry x="560.0002870063051" y="1090.004023431183" as="geometry">
            <mxPoint x="-176" y="-424" as="offset" />
          </mxGeometry>
        </mxCell>
        <mxCell id="c0AfJsu5kKPvgwh6cU9c-4" value="&lt;font style=&quot;font-size: 9px;&quot;&gt;(Προσπέλαση Balance &lt;br&gt;και καλαθιού)&lt;br style=&quot;font-size: 9px;&quot;&gt;&lt;/font&gt;" style="edgeLabel;html=1;align=center;verticalAlign=middle;resizable=0;points=[];fontSize=9;rotation=45;fontColor=#000000;" vertex="1" connectable="0" parent="1">
          <mxGeometry x="340.00028700630514" y="560.004023431183" as="geometry">
            <mxPoint x="-176" y="-424" as="offset" />
          </mxGeometry>
        </mxCell>
      </root>
    </mxGraphModel>
  </diagram>
</mxfile>
